<svg width="490" height="151" viewBox="0 0 490 151" fill="none" xmlns="http://www.w3.org/2000/svg">
<path d="M144.844 39.6349C140.66 32.3877 107.897 43.4724 71.6647 64.3934C35.4325 85.3143 9.45213 108.149 13.6359 115.396" stroke="#343434" stroke-width="7"/>
<path d="M3.92164 54.7857C6.0873 46.7025 40.6031 48.9287 81.0148 59.7582C121.427 70.5877 152.431 85.9195 150.265 94.0027" stroke="#343434" stroke-width="7"/>
<rect x="0.761475" y="75" width="45.4544" height="106.06" rx="3" transform="rotate(-45 0.761475 75)" fill="#6A6A6A"/>
<rect width="45.4544" height="106.06" rx="3" transform="matrix(0.707068 -0.707145 0.707068 0.707145 43.6135 32.1429)" fill="#6A6A6A"/>
<path d="M144.844 39.6349C149.028 46.8821 123.048 69.717 86.8155 90.6379C50.5833 111.559 17.8197 122.644 13.636 115.396" stroke="#343434" stroke-width="7"/>
<path d="M3.92128 54.7857C1.75562 62.8689 32.7602 78.2007 73.1719 89.0302C113.584 99.8596 148.099 102.086 150.265 94.0027" stroke="#343434" stroke-width="7"/>
<path d="M166 71.4823V26.8918H174.46V63.8382H194.969V71.4823H166Z" fill="#343434"/>
<path d="M200.993 71.4823V39.8867H209.069V71.4823H200.993ZM205.031 36.1921C203.578 36.1921 202.339 35.725 201.314 34.7907C200.331 33.8564 199.84 32.6249 199.84 31.0961C199.84 29.5672 200.331 28.3357 201.314 27.4014C202.339 26.4671 203.578 26 205.031 26C206.527 26 207.766 26.4671 208.748 27.4014C209.731 28.3357 210.222 29.5672 210.222 31.0961C210.222 32.6249 209.731 33.8564 208.748 34.7907C207.766 35.725 206.527 36.1921 205.031 36.1921Z" fill="#343434"/>
<path d="M241.859 84.2224V67.8513H240.706C240.279 68.5733 239.659 69.2952 238.847 70.0171C238.035 70.6966 236.967 71.2487 235.643 71.6734C234.361 72.1405 232.759 72.3741 230.836 72.3741C228.272 72.3741 225.901 71.7583 223.722 70.5268C221.543 69.2527 219.791 67.4054 218.466 64.9848C217.142 62.5642 216.479 59.6339 216.479 56.1941V55.1749C216.479 51.7351 217.142 48.8048 218.466 46.3842C219.791 43.9636 221.543 42.1375 223.722 40.906C225.943 39.6319 228.315 38.9949 230.836 38.9949C233.741 38.9949 235.942 39.4833 237.437 40.46C238.975 41.3943 240.108 42.4772 240.834 43.7088H241.988V39.8867H249.935V84.2224H241.859ZM233.271 65.367C235.792 65.367 237.864 64.5814 239.488 63.0101C241.154 61.3963 241.988 59.0606 241.988 56.003V55.366C241.988 52.3084 241.154 49.9939 239.488 48.4226C237.822 46.8089 235.749 46.002 233.271 46.002C230.793 46.002 228.721 46.8089 227.054 48.4226C225.388 49.9939 224.555 52.3084 224.555 55.366V56.003C224.555 59.0606 225.388 61.3963 227.054 63.0101C228.721 64.5814 230.793 65.367 233.271 65.367Z" fill="#343434"/>
<path d="M271.001 71.9919C268.523 71.9919 266.344 71.4398 264.464 70.3356C262.627 69.189 261.195 67.6178 260.17 65.6218C259.145 63.6259 258.632 61.3326 258.632 58.7421V39.8867H266.707V58.1051C266.707 60.4833 267.284 62.2669 268.438 63.456C269.634 64.6451 271.322 65.2396 273.501 65.2396C275.979 65.2396 277.902 64.4327 279.269 62.819C280.636 61.1628 281.32 58.8695 281.32 55.9393V39.8867H289.396V71.4823H281.448V67.3417H280.295C279.782 68.4034 278.821 69.4438 277.411 70.4631C276.001 71.4823 273.864 71.9919 271.001 71.9919Z" fill="#343434"/>
<path d="M298.382 71.4823V39.8867H306.457V71.4823H298.382ZM302.42 36.1921C300.967 36.1921 299.728 35.725 298.702 34.7907C297.72 33.8564 297.228 32.6249 297.228 31.0961C297.228 29.5672 297.72 28.3357 298.702 27.4014C299.728 26.4671 300.967 26 302.42 26C303.915 26 305.154 26.4671 306.137 27.4014C307.12 28.3357 307.611 29.5672 307.611 31.0961C307.611 32.6249 307.12 33.8564 306.137 34.7907C305.154 35.725 303.915 36.1921 302.42 36.1921Z" fill="#343434"/>
<path d="M328.224 72.3741C325.703 72.3741 323.332 71.7583 321.11 70.5268C318.931 69.2527 317.179 67.4054 315.855 64.9848C314.53 62.5642 313.868 59.6339 313.868 56.1941V55.1749C313.868 51.7351 314.53 48.8048 315.855 46.3842C317.179 43.9636 318.931 42.1375 321.11 40.906C323.289 39.6319 325.661 38.9949 328.224 38.9949C330.147 38.9949 331.749 39.2285 333.031 39.6956C334.356 40.1203 335.424 40.6724 336.236 41.3519C337.048 42.0313 337.667 42.7533 338.094 43.5177H339.248V26.8918H347.324V71.4823H339.376V67.6602H338.223C337.496 68.8493 336.364 69.9322 334.826 70.909C333.33 71.8857 331.13 72.3741 328.224 72.3741ZM330.66 65.367C333.138 65.367 335.21 64.5814 336.877 63.0101C338.543 61.3963 339.376 59.0606 339.376 56.003V55.366C339.376 52.3084 338.543 49.9939 336.877 48.4226C335.253 46.8089 333.181 46.002 330.66 46.002C328.182 46.002 326.109 46.8089 324.443 48.4226C322.777 49.9939 321.943 52.3084 321.943 55.366V56.003C321.943 59.0606 322.777 61.3963 324.443 63.0101C326.109 64.5814 328.182 65.367 330.66 65.367Z" fill="#343434"/>
<path d="M356.277 71.4823V39.8867H364.352V71.4823H356.277ZM360.315 36.1921C358.862 36.1921 357.623 35.725 356.597 34.7907C355.615 33.8564 355.123 32.6249 355.123 31.0961C355.123 29.5672 355.615 28.3357 356.597 27.4014C357.623 26.4671 358.862 26 360.315 26C361.81 26 363.049 26.4671 364.032 27.4014C365.015 28.3357 365.506 29.5672 365.506 31.0961C365.506 32.6249 365.015 33.8564 364.032 34.7907C363.049 35.725 361.81 36.1921 360.315 36.1921Z" fill="#343434"/>
<path d="M385.478 71.4823C383.385 71.4823 381.676 70.8453 380.351 69.5712C379.069 68.2548 378.428 66.5136 378.428 64.3478V46.5116H370.481V39.8867H378.428V30.0768H386.504V39.8867H395.22V46.5116H386.504V62.9464C386.504 64.2204 387.102 64.8574 388.298 64.8574H394.451V71.4823H385.478Z" fill="#343434"/>
<path d="M405.991 84.2224V77.2153H423.296C424.492 77.2153 425.09 76.5783 425.09 75.3043V67.3417H423.937C423.595 68.0637 423.061 68.7856 422.334 69.5075C421.608 70.2295 420.625 70.824 419.386 71.2912C418.147 71.7583 416.566 71.9919 414.643 71.9919C412.165 71.9919 409.986 71.4398 408.106 70.3356C406.269 69.189 404.837 67.6178 403.812 65.6218C402.786 63.6259 402.274 61.3326 402.274 58.7421V39.8867H410.349V58.1051C410.349 60.4833 410.926 62.2669 412.08 63.456C413.276 64.6451 414.964 65.2396 417.143 65.2396C419.621 65.2396 421.544 64.4327 422.911 62.819C424.278 61.1628 424.962 58.8695 424.962 55.9393V39.8867H433.038V77.0879C433.038 79.2537 432.397 80.9737 431.115 82.2477C429.833 83.5641 428.124 84.2224 425.987 84.2224H405.991Z" fill="#343434"/>
<path d="M218.961 124.131C215.5 124.131 212.445 123.515 209.795 122.284C207.146 121.052 205.074 119.29 203.579 116.996C202.083 114.703 201.335 111.943 201.335 108.715V106.932H209.667V108.715C209.667 111.391 210.5 113.408 212.167 114.767C213.833 116.083 216.098 116.742 218.961 116.742C221.866 116.742 224.024 116.168 225.434 115.022C226.886 113.875 227.613 112.41 227.613 110.626C227.613 109.395 227.25 108.397 226.523 107.632C225.84 106.868 224.814 106.252 223.447 105.785C222.122 105.275 220.499 104.808 218.576 104.384L217.102 104.065C214.026 103.386 211.376 102.536 209.155 101.517C206.975 100.455 205.288 99.0753 204.091 97.3766C202.938 95.6779 202.361 93.4696 202.361 90.7517C202.361 88.0338 203.002 85.7194 204.284 83.8084C205.608 81.8549 207.445 80.3685 209.795 79.3493C212.188 78.2876 214.987 77.7568 218.191 77.7568C221.396 77.7568 224.237 78.3089 226.716 79.413C229.236 80.4747 231.202 82.0884 232.612 84.2543C234.065 86.3776 234.791 89.0531 234.791 92.2806V94.1916H226.459V92.2806C226.459 90.5819 226.117 89.2229 225.434 88.2037C224.793 87.142 223.853 86.3776 222.614 85.9105C221.375 85.4009 219.901 85.1461 218.191 85.1461C215.628 85.1461 213.726 85.6345 212.487 86.6112C211.291 87.5455 210.693 88.8407 210.693 90.4969C210.693 91.6011 210.97 92.5354 211.526 93.2998C212.124 94.0642 213 94.7012 214.154 95.2108C215.307 95.7204 216.781 96.1663 218.576 96.5485L220.05 96.867C223.255 97.5465 226.032 98.417 228.382 99.4787C230.775 100.54 232.633 101.942 233.958 103.683C235.282 105.424 235.945 107.654 235.945 110.372C235.945 113.089 235.24 115.489 233.83 117.57C232.462 119.608 230.497 121.222 227.933 122.411C225.412 123.558 222.421 124.131 218.961 124.131Z" fill="#343434"/>
<path d="M257.636 124.131C254.474 124.131 251.633 123.494 249.112 122.22C246.591 120.946 244.604 119.099 243.151 116.678C241.699 114.257 240.972 111.348 240.972 107.951V106.932C240.972 103.534 241.699 100.625 243.151 98.2047C244.604 95.7841 246.591 93.9368 249.112 92.6628C251.633 91.3887 254.474 90.7517 257.636 90.7517C260.798 90.7517 263.639 91.3887 266.16 92.6628C268.681 93.9368 270.668 95.7841 272.121 98.2047C273.573 100.625 274.3 103.534 274.3 106.932V107.951C274.3 111.348 273.573 114.257 272.121 116.678C270.668 119.099 268.681 120.946 266.16 122.22C263.639 123.494 260.798 124.131 257.636 124.131ZM257.636 116.996C260.114 116.996 262.165 116.211 263.789 114.639C265.412 113.026 266.224 110.733 266.224 107.76V107.123C266.224 104.15 265.412 101.878 263.789 100.307C262.208 98.6931 260.157 97.8862 257.636 97.8862C255.158 97.8862 253.107 98.6931 251.483 100.307C249.86 101.878 249.048 104.15 249.048 107.123V107.76C249.048 110.733 249.86 113.026 251.483 114.639C253.107 116.211 255.158 116.996 257.636 116.996Z" fill="#343434"/>
<path d="M281.754 123.239V78.6486H289.829V123.239H281.754Z" fill="#343434"/>
<path d="M310.891 123.749C308.413 123.749 306.234 123.197 304.354 122.092C302.517 120.946 301.085 119.375 300.06 117.379C299.034 115.383 298.522 113.089 298.522 110.499V91.6435H306.597V109.862C306.597 112.24 307.174 114.024 308.328 115.213C309.524 116.402 311.212 116.996 313.391 116.996C315.869 116.996 317.792 116.19 319.159 114.576C320.526 112.92 321.21 110.626 321.21 107.696V91.6435H329.286V123.239H321.338V119.099H320.185C319.672 120.16 318.71 121.201 317.3 122.22C315.89 123.239 313.754 123.749 310.891 123.749Z" fill="#343434"/>
<path d="M350.449 123.239C348.356 123.239 346.646 122.602 345.322 121.328C344.04 120.012 343.399 118.27 343.399 116.105V98.2684H335.452V91.6435H343.399V81.8336H351.475V91.6435H360.191V98.2684H351.475V114.703C351.475 115.977 352.073 116.614 353.269 116.614H359.422V123.239H350.449Z" fill="#343434"/>
<path d="M367.501 123.239V91.6435H375.576V123.239H367.501ZM371.539 87.9489C370.086 87.9489 368.847 87.4818 367.821 86.5475C366.839 85.6132 366.347 84.3817 366.347 82.8529C366.347 81.324 366.839 80.0925 367.821 79.1582C368.847 78.2239 370.086 77.7568 371.539 77.7568C373.034 77.7568 374.273 78.2239 375.256 79.1582C376.239 80.0925 376.73 81.324 376.73 82.8529C376.73 84.3817 376.239 85.6132 375.256 86.5475C374.273 87.4818 373.034 87.9489 371.539 87.9489Z" fill="#343434"/>
<path d="M399.651 124.131C396.489 124.131 393.647 123.494 391.127 122.22C388.606 120.946 386.619 119.099 385.166 116.678C383.713 114.257 382.987 111.348 382.987 107.951V106.932C382.987 103.534 383.713 100.625 385.166 98.2047C386.619 95.7841 388.606 93.9368 391.127 92.6628C393.647 91.3887 396.489 90.7517 399.651 90.7517C402.813 90.7517 405.654 91.3887 408.175 92.6628C410.696 93.9368 412.683 95.7841 414.135 98.2047C415.588 100.625 416.314 103.534 416.314 106.932V107.951C416.314 111.348 415.588 114.257 414.135 116.678C412.683 119.099 410.696 120.946 408.175 122.22C405.654 123.494 402.813 124.131 399.651 124.131ZM399.651 116.996C402.129 116.996 404.18 116.211 405.803 114.639C407.427 113.026 408.239 110.733 408.239 107.76V107.123C408.239 104.15 407.427 101.878 405.803 100.307C404.223 98.6931 402.172 97.8862 399.651 97.8862C397.172 97.8862 395.122 98.6931 393.498 100.307C391.874 101.878 391.062 104.15 391.062 107.123V107.76C391.062 110.733 391.874 113.026 393.498 114.639C395.122 116.211 397.172 116.996 399.651 116.996Z" fill="#343434"/>
<path d="M423.768 123.239V91.6435H431.716V95.7841H432.869C433.382 94.6799 434.344 93.6395 435.754 92.6628C437.164 91.6435 439.3 91.1339 442.163 91.1339C444.641 91.1339 446.799 91.7072 448.636 92.8539C450.516 93.958 451.969 95.508 452.994 97.504C454.02 99.4575 454.532 101.751 454.532 104.384V123.239H446.457V105.021C446.457 102.643 445.859 100.859 444.662 99.6698C443.509 98.4807 441.842 97.8862 439.663 97.8862C437.185 97.8862 435.262 98.7143 433.895 100.371C432.528 101.984 431.844 104.256 431.844 107.187V123.239H423.768Z" fill="#343434"/>
<path d="M476.465 124.131C472.32 124.131 468.924 123.239 466.274 121.455C463.625 119.672 462.023 117.124 461.468 113.811L468.902 111.9C469.201 113.387 469.693 114.555 470.376 115.404C471.103 116.253 471.979 116.869 473.004 117.251C474.072 117.591 475.226 117.761 476.465 117.761C478.345 117.761 479.734 117.442 480.631 116.805C481.528 116.126 481.977 115.298 481.977 114.321C481.977 113.344 481.55 112.601 480.695 112.091C479.84 111.539 478.473 111.093 476.593 110.754L474.799 110.435C472.577 110.011 470.547 109.437 468.71 108.715C466.873 107.951 465.399 106.91 464.288 105.594C463.177 104.278 462.621 102.579 462.621 100.498C462.621 97.3554 463.775 94.956 466.082 93.2998C468.389 91.6011 471.423 90.7517 475.183 90.7517C478.73 90.7517 481.678 91.5374 484.028 93.1087C486.378 94.6799 487.916 96.7396 488.642 99.2876L481.144 101.581C480.802 99.9671 480.097 98.8205 479.029 98.141C478.003 97.4615 476.721 97.1218 475.183 97.1218C473.645 97.1218 472.47 97.3978 471.658 97.9499C470.846 98.4595 470.44 99.1815 470.44 100.116C470.44 101.135 470.868 101.899 471.722 102.409C472.577 102.876 473.73 103.237 475.183 103.492L476.978 103.81C479.37 104.235 481.528 104.808 483.451 105.53C485.416 106.21 486.955 107.208 488.066 108.524C489.219 109.798 489.796 111.539 489.796 113.748C489.796 117.06 488.578 119.629 486.143 121.455C483.75 123.239 480.524 124.131 476.465 124.131Z" fill="#343434"/>
<rect x="166" y="78.6662" width="28.9025" height="45.4646" fill="#343434"/>
<rect x="484.394" y="55.4961" width="28.7263" height="44.8659" transform="rotate(90 484.394 55.4961)" fill="#343434"/>
<path d="M340.596 148V138.2H341.45L348.212 146.712H347.764V138.2H348.786V148H347.932L341.184 139.488H341.632V148H340.596ZM351.985 148V138.2H353.021V148H351.985ZM356.209 148V138.2H359.877C360.708 138.2 361.422 138.335 362.019 138.606C362.617 138.867 363.074 139.25 363.391 139.754C363.718 140.249 363.881 140.851 363.881 141.56C363.881 142.251 363.718 142.848 363.391 143.352C363.074 143.847 362.617 144.229 362.019 144.5C361.422 144.771 360.708 144.906 359.877 144.906H356.783L357.245 144.416V148H356.209ZM357.245 144.5L356.783 143.996H359.849C360.829 143.996 361.571 143.786 362.075 143.366C362.589 142.937 362.845 142.335 362.845 141.56C362.845 140.776 362.589 140.169 362.075 139.74C361.571 139.311 360.829 139.096 359.849 139.096H356.783L357.245 138.606V144.5ZM366.146 142.106C365.941 142.106 365.763 142.031 365.614 141.882C365.474 141.733 365.404 141.551 365.404 141.336C365.404 141.112 365.474 140.93 365.614 140.79C365.763 140.65 365.941 140.58 366.146 140.58C366.351 140.58 366.524 140.65 366.664 140.79C366.813 140.93 366.888 141.112 366.888 141.336C366.888 141.551 366.813 141.733 366.664 141.882C366.524 142.031 366.351 142.106 366.146 142.106ZM366.146 148.07C365.941 148.07 365.763 147.995 365.614 147.846C365.474 147.697 365.404 147.515 365.404 147.3C365.404 147.076 365.474 146.894 365.614 146.754C365.763 146.614 365.941 146.544 366.146 146.544C366.351 146.544 366.524 146.614 366.664 146.754C366.813 146.894 366.888 147.076 366.888 147.3C366.888 147.515 366.813 147.697 366.664 147.846C366.524 147.995 366.351 148.07 366.146 148.07ZM375.745 148.084C374.961 148.084 374.284 147.972 373.715 147.748C373.155 147.524 372.721 147.202 372.413 146.782C372.114 146.353 371.965 145.849 371.965 145.27C371.965 144.71 372.11 144.234 372.399 143.842C372.698 143.441 373.127 143.133 373.687 142.918C374.256 142.703 374.942 142.596 375.745 142.596C376.538 142.596 377.22 142.703 377.789 142.918C378.358 143.133 378.792 143.441 379.091 143.842C379.399 144.234 379.553 144.71 379.553 145.27C379.553 145.849 379.399 146.353 379.091 146.782C378.783 147.202 378.344 147.524 377.775 147.748C377.206 147.972 376.529 148.084 375.745 148.084ZM375.745 147.23C376.613 147.23 377.29 147.053 377.775 146.698C378.27 146.343 378.517 145.863 378.517 145.256C378.517 144.649 378.27 144.173 377.775 143.828C377.29 143.473 376.613 143.296 375.745 143.296C374.877 143.296 374.2 143.473 373.715 143.828C373.23 144.173 372.987 144.649 372.987 145.256C372.987 145.863 373.23 146.343 373.715 146.698C374.2 147.053 374.877 147.23 375.745 147.23ZM375.745 143.17C375.017 143.17 374.396 143.072 373.883 142.876C373.379 142.68 372.992 142.4 372.721 142.036C372.45 141.663 372.315 141.219 372.315 140.706C372.315 140.165 372.455 139.703 372.735 139.32C373.024 138.928 373.426 138.629 373.939 138.424C374.452 138.219 375.054 138.116 375.745 138.116C376.436 138.116 377.038 138.219 377.551 138.424C378.074 138.629 378.48 138.928 378.769 139.32C379.058 139.703 379.203 140.165 379.203 140.706C379.203 141.219 379.068 141.663 378.797 142.036C378.526 142.4 378.13 142.68 377.607 142.876C377.094 143.072 376.473 143.17 375.745 143.17ZM375.745 142.498C376.51 142.498 377.108 142.339 377.537 142.022C377.966 141.705 378.181 141.28 378.181 140.748C378.181 140.188 377.957 139.754 377.509 139.446C377.07 139.129 376.482 138.97 375.745 138.97C375.008 138.97 374.42 139.129 373.981 139.446C373.542 139.754 373.323 140.183 373.323 140.734C373.323 141.275 373.533 141.705 373.953 142.022C374.382 142.339 374.98 142.498 375.745 142.498ZM380.767 148V147.286L384.841 143.296C385.214 142.932 385.494 142.615 385.681 142.344C385.867 142.064 385.993 141.803 386.059 141.56C386.124 141.317 386.157 141.089 386.157 140.874C386.157 140.305 385.961 139.857 385.569 139.53C385.186 139.203 384.617 139.04 383.861 139.04C383.282 139.04 382.769 139.129 382.321 139.306C381.882 139.483 381.504 139.759 381.187 140.132L380.473 139.516C380.855 139.068 381.345 138.723 381.943 138.48C382.54 138.237 383.207 138.116 383.945 138.116C384.607 138.116 385.181 138.223 385.667 138.438C386.152 138.643 386.525 138.947 386.787 139.348C387.057 139.749 387.193 140.221 387.193 140.762C387.193 141.079 387.146 141.392 387.053 141.7C386.969 142.008 386.81 142.335 386.577 142.68C386.353 143.016 386.021 143.399 385.583 143.828L381.845 147.496L381.565 147.104H387.641V148H380.767ZM388.423 145.424V144.696L393.617 138.2H394.737L389.585 144.696L389.039 144.528H396.921V145.424H388.423ZM393.953 148V145.424L393.981 144.528V142.26H394.961V148H393.953ZM399.2 148V138.62L399.648 139.096H396.89V138.2H400.208V148H399.2ZM406.274 148.084C405.49 148.084 404.814 147.972 404.244 147.748C403.684 147.524 403.25 147.202 402.942 146.782C402.644 146.353 402.494 145.849 402.494 145.27C402.494 144.71 402.639 144.234 402.928 143.842C403.227 143.441 403.656 143.133 404.216 142.918C404.786 142.703 405.472 142.596 406.274 142.596C407.068 142.596 407.749 142.703 408.318 142.918C408.888 143.133 409.322 143.441 409.62 143.842C409.928 144.234 410.082 144.71 410.082 145.27C410.082 145.849 409.928 146.353 409.62 146.782C409.312 147.202 408.874 147.524 408.304 147.748C407.735 147.972 407.058 148.084 406.274 148.084ZM406.274 147.23C407.142 147.23 407.819 147.053 408.304 146.698C408.799 146.343 409.046 145.863 409.046 145.256C409.046 144.649 408.799 144.173 408.304 143.828C407.819 143.473 407.142 143.296 406.274 143.296C405.406 143.296 404.73 143.473 404.244 143.828C403.759 144.173 403.516 144.649 403.516 145.256C403.516 145.863 403.759 146.343 404.244 146.698C404.73 147.053 405.406 147.23 406.274 147.23ZM406.274 143.17C405.546 143.17 404.926 143.072 404.412 142.876C403.908 142.68 403.521 142.4 403.25 142.036C402.98 141.663 402.844 141.219 402.844 140.706C402.844 140.165 402.984 139.703 403.264 139.32C403.554 138.928 403.955 138.629 404.468 138.424C404.982 138.219 405.584 138.116 406.274 138.116C406.965 138.116 407.567 138.219 408.08 138.424C408.603 138.629 409.009 138.928 409.298 139.32C409.588 139.703 409.732 140.165 409.732 140.706C409.732 141.219 409.597 141.663 409.326 142.036C409.056 142.4 408.659 142.68 408.136 142.876C407.623 143.072 407.002 143.17 406.274 143.17ZM406.274 142.498C407.04 142.498 407.637 142.339 408.066 142.022C408.496 141.705 408.71 141.28 408.71 140.748C408.71 140.188 408.486 139.754 408.038 139.446C407.6 139.129 407.012 138.97 406.274 138.97C405.537 138.97 404.949 139.129 404.51 139.446C404.072 139.754 403.852 140.183 403.852 140.734C403.852 141.275 404.062 141.705 404.482 142.022C404.912 142.339 405.509 142.498 406.274 142.498ZM413.186 148V138.62L413.634 139.096H410.876V138.2H414.194V148H413.186ZM420.261 148.084C419.477 148.084 418.8 147.972 418.231 147.748C417.671 147.524 417.237 147.202 416.929 146.782C416.63 146.353 416.481 145.849 416.481 145.27C416.481 144.71 416.625 144.234 416.915 143.842C417.213 143.441 417.643 143.133 418.203 142.918C418.772 142.703 419.458 142.596 420.261 142.596C421.054 142.596 421.735 142.703 422.305 142.918C422.874 143.133 423.308 143.441 423.607 143.842C423.915 144.234 424.069 144.71 424.069 145.27C424.069 145.849 423.915 146.353 423.607 146.782C423.299 147.202 422.86 147.524 422.291 147.748C421.721 147.972 421.045 148.084 420.261 148.084ZM420.261 147.23C421.129 147.23 421.805 147.053 422.291 146.698C422.785 146.343 423.033 145.863 423.033 145.256C423.033 144.649 422.785 144.173 422.291 143.828C421.805 143.473 421.129 143.296 420.261 143.296C419.393 143.296 418.716 143.473 418.231 143.828C417.745 144.173 417.503 144.649 417.503 145.256C417.503 145.863 417.745 146.343 418.231 146.698C418.716 147.053 419.393 147.23 420.261 147.23ZM420.261 143.17C419.533 143.17 418.912 143.072 418.399 142.876C417.895 142.68 417.507 142.4 417.237 142.036C416.966 141.663 416.831 141.219 416.831 140.706C416.831 140.165 416.971 139.703 417.251 139.32C417.54 138.928 417.941 138.629 418.455 138.424C418.968 138.219 419.57 138.116 420.261 138.116C420.951 138.116 421.553 138.219 422.067 138.424C422.589 138.629 422.995 138.928 423.285 139.32C423.574 139.703 423.719 140.165 423.719 140.706C423.719 141.219 423.583 141.663 423.313 142.036C423.042 142.4 422.645 142.68 422.123 142.876C421.609 143.072 420.989 143.17 420.261 143.17ZM420.261 142.498C421.026 142.498 421.623 142.339 422.053 142.022C422.482 141.705 422.697 141.28 422.697 140.748C422.697 140.188 422.473 139.754 422.025 139.446C421.586 139.129 420.998 138.97 420.261 138.97C419.523 138.97 418.935 139.129 418.497 139.446C418.058 139.754 417.839 140.183 417.839 140.734C417.839 141.275 418.049 141.705 418.469 142.022C418.898 142.339 419.495 142.498 420.261 142.498ZM429.37 148.084C428.614 148.084 427.942 147.888 427.354 147.496C426.766 147.095 426.304 146.525 425.968 145.788C425.632 145.041 425.464 144.145 425.464 143.1C425.464 142.055 425.632 141.163 425.968 140.426C426.304 139.679 426.766 139.11 427.354 138.718C427.942 138.317 428.614 138.116 429.37 138.116C430.126 138.116 430.798 138.317 431.386 138.718C431.974 139.11 432.436 139.679 432.772 140.426C433.118 141.163 433.29 142.055 433.29 143.1C433.29 144.145 433.118 145.041 432.772 145.788C432.436 146.525 431.974 147.095 431.386 147.496C430.798 147.888 430.126 148.084 429.37 148.084ZM429.37 147.16C429.949 147.16 430.453 147.006 430.882 146.698C431.312 146.381 431.648 145.923 431.89 145.326C432.133 144.719 432.254 143.977 432.254 143.1C432.254 142.223 432.133 141.485 431.89 140.888C431.648 140.281 431.312 139.824 430.882 139.516C430.453 139.199 429.949 139.04 429.37 139.04C428.81 139.04 428.311 139.199 427.872 139.516C427.434 139.824 427.093 140.281 426.85 140.888C426.608 141.485 426.486 142.223 426.486 143.1C426.486 143.977 426.608 144.719 426.85 145.326C427.093 145.923 427.434 146.381 427.872 146.698C428.311 147.006 428.81 147.16 429.37 147.16ZM437.828 148.084C437.128 148.084 436.461 147.972 435.826 147.748C435.191 147.515 434.687 147.207 434.314 146.824L434.804 146.026C435.112 146.353 435.532 146.623 436.064 146.838C436.605 147.053 437.189 147.16 437.814 147.16C438.645 147.16 439.275 146.978 439.704 146.614C440.143 146.241 440.362 145.755 440.362 145.158C440.362 144.738 440.259 144.379 440.054 144.08C439.858 143.772 439.522 143.534 439.046 143.366C438.57 143.198 437.917 143.114 437.086 143.114H435L435.504 138.2H440.866V139.096H435.91L436.428 138.606L435.994 142.722L435.476 142.218H437.31C438.299 142.218 439.093 142.339 439.69 142.582C440.287 142.825 440.717 143.165 440.978 143.604C441.249 144.033 441.384 144.537 441.384 145.116C441.384 145.667 441.253 146.171 440.992 146.628C440.731 147.076 440.339 147.431 439.816 147.692C439.293 147.953 438.631 148.084 437.828 148.084ZM442.496 145.424V144.696L447.69 138.2H448.81L443.658 144.696L443.112 144.528H450.994V145.424H442.496ZM448.026 148V145.424L448.054 144.528V142.26H449.034V148H448.026Z" fill="#343434"/>
<path d="M206.492 145.564L206.45 144.304L212.386 138.2H213.576L209.25 142.736L208.662 143.366L206.492 145.564ZM205.596 148V138.2H206.632V148H205.596ZM212.638 148L208.41 143.128L209.11 142.372L213.87 148H212.638ZM215.549 148V138.2H219.217C220.048 138.2 220.762 138.335 221.359 138.606C221.956 138.867 222.414 139.25 222.731 139.754C223.058 140.249 223.221 140.851 223.221 141.56C223.221 142.251 223.058 142.848 222.731 143.352C222.414 143.847 221.956 144.229 221.359 144.5C220.762 144.761 220.048 144.892 219.217 144.892H216.123L216.585 144.416V148H215.549ZM222.241 148L219.721 144.444H220.841L223.375 148H222.241ZM216.585 144.5L216.123 144.01H219.189C220.169 144.01 220.911 143.795 221.415 143.366C221.928 142.937 222.185 142.335 222.185 141.56C222.185 140.776 221.928 140.169 221.415 139.74C220.911 139.311 220.169 139.096 219.189 139.096H216.123L216.585 138.606V144.5ZM228.368 148.084C227.64 148.084 226.94 147.967 226.268 147.734C225.606 147.491 225.092 147.183 224.728 146.81L225.134 146.012C225.48 146.348 225.942 146.633 226.52 146.866C227.108 147.09 227.724 147.202 228.368 147.202C228.984 147.202 229.484 147.127 229.866 146.978C230.258 146.819 230.543 146.609 230.72 146.348C230.907 146.087 231 145.797 231 145.48C231 145.097 230.888 144.789 230.664 144.556C230.45 144.323 230.165 144.141 229.81 144.01C229.456 143.87 229.064 143.749 228.634 143.646C228.205 143.543 227.776 143.436 227.346 143.324C226.917 143.203 226.52 143.044 226.156 142.848C225.802 142.652 225.512 142.395 225.288 142.078C225.074 141.751 224.966 141.327 224.966 140.804C224.966 140.319 225.092 139.875 225.344 139.474C225.606 139.063 226.002 138.737 226.534 138.494C227.066 138.242 227.748 138.116 228.578 138.116C229.129 138.116 229.675 138.195 230.216 138.354C230.758 138.503 231.224 138.713 231.616 138.984L231.266 139.81C230.846 139.53 230.398 139.325 229.922 139.194C229.456 139.063 229.003 138.998 228.564 138.998C227.976 138.998 227.491 139.077 227.108 139.236C226.726 139.395 226.441 139.609 226.254 139.88C226.077 140.141 225.988 140.44 225.988 140.776C225.988 141.159 226.096 141.467 226.31 141.7C226.534 141.933 226.824 142.115 227.178 142.246C227.542 142.377 227.939 142.493 228.368 142.596C228.798 142.699 229.222 142.811 229.642 142.932C230.072 143.053 230.464 143.212 230.818 143.408C231.182 143.595 231.472 143.847 231.686 144.164C231.91 144.481 232.022 144.897 232.022 145.41C232.022 145.886 231.892 146.329 231.63 146.74C231.369 147.141 230.968 147.468 230.426 147.72C229.894 147.963 229.208 148.084 228.368 148.084ZM234.099 142.106C233.894 142.106 233.717 142.031 233.567 141.882C233.427 141.733 233.357 141.551 233.357 141.336C233.357 141.112 233.427 140.93 233.567 140.79C233.717 140.65 233.894 140.58 234.099 140.58C234.305 140.58 234.477 140.65 234.617 140.79C234.767 140.93 234.841 141.112 234.841 141.336C234.841 141.551 234.767 141.733 234.617 141.882C234.477 142.031 234.305 142.106 234.099 142.106ZM234.099 148.07C233.894 148.07 233.717 147.995 233.567 147.846C233.427 147.697 233.357 147.515 233.357 147.3C233.357 147.076 233.427 146.894 233.567 146.754C233.717 146.614 233.894 146.544 234.099 146.544C234.305 146.544 234.477 146.614 234.617 146.754C234.767 146.894 234.841 147.076 234.841 147.3C234.841 147.515 234.767 147.697 234.617 147.846C234.477 147.995 234.305 148.07 234.099 148.07ZM243.88 148.084C243.124 148.084 242.452 147.888 241.864 147.496C241.276 147.095 240.814 146.525 240.478 145.788C240.142 145.041 239.974 144.145 239.974 143.1C239.974 142.055 240.142 141.163 240.478 140.426C240.814 139.679 241.276 139.11 241.864 138.718C242.452 138.317 243.124 138.116 243.88 138.116C244.636 138.116 245.308 138.317 245.896 138.718C246.484 139.11 246.946 139.679 247.282 140.426C247.627 141.163 247.8 142.055 247.8 143.1C247.8 144.145 247.627 145.041 247.282 145.788C246.946 146.525 246.484 147.095 245.896 147.496C245.308 147.888 244.636 148.084 243.88 148.084ZM243.88 147.16C244.459 147.16 244.963 147.006 245.392 146.698C245.821 146.381 246.157 145.923 246.4 145.326C246.643 144.719 246.764 143.977 246.764 143.1C246.764 142.223 246.643 141.485 246.4 140.888C246.157 140.281 245.821 139.824 245.392 139.516C244.963 139.199 244.459 139.04 243.88 139.04C243.32 139.04 242.821 139.199 242.382 139.516C241.943 139.824 241.603 140.281 241.36 140.888C241.117 141.485 240.996 142.223 240.996 143.1C240.996 143.977 241.117 144.719 241.36 145.326C241.603 145.923 241.943 146.381 242.382 146.698C242.821 147.006 243.32 147.16 243.88 147.16ZM253.15 148.084C252.394 148.084 251.722 147.888 251.134 147.496C250.546 147.095 250.084 146.525 249.748 145.788C249.412 145.041 249.244 144.145 249.244 143.1C249.244 142.055 249.412 141.163 249.748 140.426C250.084 139.679 250.546 139.11 251.134 138.718C251.722 138.317 252.394 138.116 253.15 138.116C253.906 138.116 254.578 138.317 255.166 138.718C255.754 139.11 256.216 139.679 256.552 140.426C256.897 141.163 257.07 142.055 257.07 143.1C257.07 144.145 256.897 145.041 256.552 145.788C256.216 146.525 255.754 147.095 255.166 147.496C254.578 147.888 253.906 148.084 253.15 148.084ZM253.15 147.16C253.728 147.16 254.232 147.006 254.662 146.698C255.091 146.381 255.427 145.923 255.67 145.326C255.912 144.719 256.034 143.977 256.034 143.1C256.034 142.223 255.912 141.485 255.67 140.888C255.427 140.281 255.091 139.824 254.662 139.516C254.232 139.199 253.728 139.04 253.15 139.04C252.59 139.04 252.09 139.199 251.652 139.516C251.213 139.824 250.872 140.281 250.63 140.888C250.387 141.485 250.266 142.223 250.266 143.1C250.266 143.977 250.387 144.719 250.63 145.326C250.872 145.923 251.213 146.381 251.652 146.698C252.09 147.006 252.59 147.16 253.15 147.16ZM262.419 148.084C261.663 148.084 260.991 147.888 260.403 147.496C259.815 147.095 259.353 146.525 259.017 145.788C258.681 145.041 258.513 144.145 258.513 143.1C258.513 142.055 258.681 141.163 259.017 140.426C259.353 139.679 259.815 139.11 260.403 138.718C260.991 138.317 261.663 138.116 262.419 138.116C263.175 138.116 263.847 138.317 264.435 138.718C265.023 139.11 265.485 139.679 265.821 140.426C266.166 141.163 266.339 142.055 266.339 143.1C266.339 144.145 266.166 145.041 265.821 145.788C265.485 146.525 265.023 147.095 264.435 147.496C263.847 147.888 263.175 148.084 262.419 148.084ZM262.419 147.16C262.998 147.16 263.502 147.006 263.931 146.698C264.36 146.381 264.696 145.923 264.939 145.326C265.182 144.719 265.303 143.977 265.303 143.1C265.303 142.223 265.182 141.485 264.939 140.888C264.696 140.281 264.36 139.824 263.931 139.516C263.502 139.199 262.998 139.04 262.419 139.04C261.859 139.04 261.36 139.199 260.921 139.516C260.482 139.824 260.142 140.281 259.899 140.888C259.656 141.485 259.535 142.223 259.535 143.1C259.535 143.977 259.656 144.719 259.899 145.326C260.142 145.923 260.482 146.381 260.921 146.698C261.36 147.006 261.859 147.16 262.419 147.16ZM269.491 148V138.62L269.939 139.096H267.181V138.2H270.499V148H269.491ZM276.747 148.084C275.991 148.084 275.319 147.888 274.731 147.496C274.143 147.095 273.681 146.525 273.345 145.788C273.009 145.041 272.841 144.145 272.841 143.1C272.841 142.055 273.009 141.163 273.345 140.426C273.681 139.679 274.143 139.11 274.731 138.718C275.319 138.317 275.991 138.116 276.747 138.116C277.503 138.116 278.175 138.317 278.763 138.718C279.351 139.11 279.813 139.679 280.149 140.426C280.495 141.163 280.667 142.055 280.667 143.1C280.667 144.145 280.495 145.041 280.149 145.788C279.813 146.525 279.351 147.095 278.763 147.496C278.175 147.888 277.503 148.084 276.747 148.084ZM276.747 147.16C277.326 147.16 277.83 147.006 278.259 146.698C278.689 146.381 279.025 145.923 279.267 145.326C279.51 144.719 279.631 143.977 279.631 143.1C279.631 142.223 279.51 141.485 279.267 140.888C279.025 140.281 278.689 139.824 278.259 139.516C277.83 139.199 277.326 139.04 276.747 139.04C276.187 139.04 275.688 139.199 275.249 139.516C274.811 139.824 274.47 140.281 274.227 140.888C273.985 141.485 273.863 142.223 273.863 143.1C273.863 143.977 273.985 144.719 274.227 145.326C274.47 145.923 274.811 146.381 275.249 146.698C275.688 147.006 276.187 147.16 276.747 147.16ZM281.929 148V147.286L286.003 143.296C286.376 142.932 286.656 142.615 286.843 142.344C287.029 142.064 287.155 141.803 287.221 141.56C287.286 141.317 287.319 141.089 287.319 140.874C287.319 140.305 287.123 139.857 286.731 139.53C286.348 139.203 285.779 139.04 285.023 139.04C284.444 139.04 283.931 139.129 283.483 139.306C283.044 139.483 282.666 139.759 282.349 140.132L281.635 139.516C282.017 139.068 282.507 138.723 283.105 138.48C283.702 138.237 284.369 138.116 285.107 138.116C285.769 138.116 286.343 138.223 286.829 138.438C287.314 138.643 287.687 138.947 287.949 139.348C288.219 139.749 288.355 140.221 288.355 140.762C288.355 141.079 288.308 141.392 288.215 141.7C288.131 142.008 287.972 142.335 287.739 142.68C287.515 143.016 287.183 143.399 286.745 143.828L283.007 147.496L282.727 147.104H288.803V148H281.929ZM291.776 148V138.62L292.224 139.096H289.466V138.2H292.784V148H291.776ZM294.944 148V147.286L299.018 143.296C299.392 142.932 299.672 142.615 299.858 142.344C300.045 142.064 300.171 141.803 300.236 141.56C300.302 141.317 300.334 141.089 300.334 140.874C300.334 140.305 300.138 139.857 299.746 139.53C299.364 139.203 298.794 139.04 298.038 139.04C297.46 139.04 296.946 139.129 296.498 139.306C296.06 139.483 295.682 139.759 295.364 140.132L294.65 139.516C295.033 139.068 295.523 138.723 296.12 138.48C296.718 138.237 297.385 138.116 298.122 138.116C298.785 138.116 299.359 138.223 299.844 138.438C300.33 138.643 300.703 138.947 300.964 139.348C301.235 139.749 301.37 140.221 301.37 140.762C301.37 141.079 301.324 141.392 301.23 141.7C301.146 142.008 300.988 142.335 300.754 142.68C300.53 143.016 300.199 143.399 299.76 143.828L296.022 147.496L295.742 147.104H301.818V148H294.944ZM302.901 148V147.286L306.975 143.296C307.349 142.932 307.629 142.615 307.815 142.344C308.002 142.064 308.128 141.803 308.193 141.56C308.259 141.317 308.291 141.089 308.291 140.874C308.291 140.305 308.095 139.857 307.703 139.53C307.321 139.203 306.751 139.04 305.995 139.04C305.417 139.04 304.903 139.129 304.455 139.306C304.017 139.483 303.639 139.759 303.321 140.132L302.607 139.516C302.99 139.068 303.48 138.723 304.077 138.48C304.675 138.237 305.342 138.116 306.079 138.116C306.742 138.116 307.316 138.223 307.801 138.438C308.287 138.643 308.66 138.947 308.921 139.348C309.192 139.749 309.327 140.221 309.327 140.762C309.327 141.079 309.281 141.392 309.187 141.7C309.103 142.008 308.945 142.335 308.711 142.68C308.487 143.016 308.156 143.399 307.717 143.828L303.979 147.496L303.699 147.104H309.775V148H302.901ZM314.135 148.084C313.435 148.084 312.767 147.972 312.133 147.748C311.498 147.515 310.994 147.207 310.621 146.824L311.111 146.026C311.419 146.353 311.839 146.623 312.37 146.838C312.912 147.053 313.495 147.16 314.121 147.16C314.951 147.16 315.581 146.978 316.011 146.614C316.449 146.241 316.669 145.755 316.669 145.158C316.669 144.738 316.566 144.379 316.361 144.08C316.165 143.772 315.829 143.534 315.353 143.366C314.877 143.198 314.223 143.114 313.393 143.114H311.307L311.811 138.2H317.173V139.096H312.217L312.735 138.606L312.301 142.722L311.783 142.218H313.617C314.606 142.218 315.399 142.339 315.997 142.582C316.594 142.825 317.023 143.165 317.285 143.604C317.555 144.033 317.691 144.537 317.691 145.116C317.691 145.667 317.56 146.171 317.299 146.628C317.037 147.076 316.645 147.431 316.123 147.692C315.6 147.953 314.937 148.084 314.135 148.084Z" fill="#343434"/>
<line x1="329.5" y1="137" x2="329.5" y2="149" stroke="#343434"/>
</svg>
